<svg width="65" height="18" fill="none" xmlns="http://www.w3.org/2000/svg"><path d="M.25 17V.5h3.24v13.66h5.96V17H.25Zm18.956.32a8 8 0 0 1-3.24-.66 8.312 8.312 0 0 1-2.65-1.83 8.776 8.776 0 0 1-1.79-2.73 8.714 8.714 0 0 1-.64-3.34 8.64 8.64 0 0 1 .64-3.33 8.623 8.623 0 0 1 1.79-2.73 8.235 8.235 0 0 1 2.65-1.84 8 8 0 0 1 3.24-.66 8 8 0 0 1 3.24.66 8.234 8.234 0 0 1 2.65 1.84c.76.78 1.353 1.69 1.78 2.73a8.521 8.521 0 0 1 .65 3.33c0 1.187-.217 2.3-.65 3.34a8.63 8.63 0 0 1-1.78 2.73 8.31 8.31 0 0 1-2.65 1.83 8 8 0 0 1-3.24.66Zm-.01-3.12c.707 0 1.353-.133 1.94-.4a4.548 4.548 0 0 0 1.53-1.13c.433-.487.77-1.06 1.01-1.72.24-.667.36-1.397.36-2.19 0-.793-.12-1.52-.36-2.18a5.235 5.235 0 0 0-1.01-1.73 4.548 4.548 0 0 0-1.53-1.13 4.633 4.633 0 0 0-1.94-.4c-.693 0-1.337.133-1.93.4a4.55 4.55 0 0 0-1.53 1.13 5.237 5.237 0 0 0-1.01 1.73 6.502 6.502 0 0 0-.35 2.18c0 .793.117 1.523.35 2.19.24.66.577 1.233 1.01 1.72a4.55 4.55 0 0 0 1.53 1.13c.593.267 1.237.4 1.93.4Zm18.52 3.12a7.75 7.75 0 0 1-3.17-.65 7.92 7.92 0 0 1-2.57-1.81 8.554 8.554 0 0 1-1.72-2.73c-.413-1.04-.62-2.167-.62-3.38 0-1.16.194-2.253.58-3.28a8.23 8.23 0 0 1 1.67-2.73 7.666 7.666 0 0 1 2.63-1.86C35.543.427 36.693.2 37.966.2c.72 0 1.444.08 2.17.24.734.16 1.437.397 2.11.71.674.307 1.28.683 1.82 1.13l-1.52 2.51c-.58-.54-1.283-.957-2.11-1.25-.82-.3-1.63-.45-2.43-.45-.786 0-1.483.14-2.09.42-.6.273-1.106.66-1.52 1.16a5.188 5.188 0 0 0-.94 1.76 7.12 7.12 0 0 0-.32 2.18c0 .86.12 1.64.36 2.34s.574 1.303 1 1.81a4.55 4.55 0 0 0 1.51 1.17c.58.273 1.204.41 1.87.41.534 0 1.047-.087 1.54-.26.5-.18.944-.43 1.33-.75.387-.32.694-.697.92-1.13.227-.433.34-.907.34-1.42v-.25h-4.33V8.02h7.63v2.5c0 1.007-.21 1.927-.63 2.76a6.712 6.712 0 0 1-1.7 2.15 8.196 8.196 0 0 1-2.44 1.4 8.256 8.256 0 0 1-2.82.49Zm17.974 0a8 8 0 0 1-3.24-.66 8.31 8.31 0 0 1-2.65-1.83 8.774 8.774 0 0 1-1.79-2.73 8.713 8.713 0 0 1-.64-3.34c0-1.187.214-2.297.64-3.33A8.621 8.621 0 0 1 49.8 2.7 8.234 8.234 0 0 1 52.45.86 8 8 0 0 1 55.69.2a8 8 0 0 1 3.24.66 8.234 8.234 0 0 1 2.65 1.84c.76.78 1.354 1.69 1.78 2.73a8.523 8.523 0 0 1 .65 3.33c0 1.187-.216 2.3-.65 3.34a8.632 8.632 0 0 1-1.78 2.73 8.31 8.31 0 0 1-2.65 1.83 8 8 0 0 1-3.24.66Zm-.01-3.12c.707 0 1.354-.133 1.94-.4a4.548 4.548 0 0 0 1.53-1.13c.434-.487.77-1.06 1.01-1.72.24-.667.36-1.397.36-2.19 0-.793-.12-1.52-.36-2.18a5.237 5.237 0 0 0-1.01-1.73 4.548 4.548 0 0 0-1.53-1.13 4.633 4.633 0 0 0-1.94-.4c-.693 0-1.336.133-1.93.4a4.548 4.548 0 0 0-1.53 1.13 5.237 5.237 0 0 0-1.01 1.73 6.502 6.502 0 0 0-.35 2.18c0 .793.117 1.523.35 2.19.24.66.577 1.233 1.01 1.72.434.487.944.863 1.53 1.13.594.267 1.237.4 1.93.4Z" fill="#F8F9FA"/></svg>