<svg width="65" height="18" viewBox="0 0 65 18" fill="none" xmlns="http://www.w3.org/2000/svg">
<path d="M0.25 17V0.499999H3.49V14.16H9.45V17H0.25ZM19.2059 17.32C18.0526 17.32 16.9726 17.1 15.9659 16.66C14.9593 16.22 14.0759 15.61 13.3159 14.83C12.5559 14.0433 11.9593 13.1333 11.5259 12.1C11.0993 11.06 10.8859 9.94667 10.8859 8.76C10.8859 7.57333 11.0993 6.46333 11.5259 5.43C11.9593 4.39 12.5559 3.48 13.3159 2.7C14.0759 1.91333 14.9593 1.3 15.9659 0.859999C16.9726 0.419999 18.0526 0.199999 19.2059 0.199999C20.3593 0.199999 21.4393 0.419999 22.4459 0.859999C23.4526 1.3 24.3359 1.91333 25.0959 2.7C25.8559 3.48 26.4493 4.39 26.8759 5.43C27.3093 6.46333 27.5259 7.57333 27.5259 8.76C27.5259 9.94667 27.3093 11.06 26.8759 12.1C26.4493 13.1333 25.8559 14.0433 25.0959 14.83C24.3359 15.61 23.4526 16.22 22.4459 16.66C21.4393 17.1 20.3593 17.32 19.2059 17.32ZM19.1959 14.2C19.9026 14.2 20.5493 14.0667 21.1359 13.8C21.7226 13.5333 22.2326 13.1567 22.6659 12.67C23.0993 12.1833 23.4359 11.61 23.6759 10.95C23.9159 10.2833 24.0359 9.55333 24.0359 8.76C24.0359 7.96667 23.9159 7.24 23.6759 6.58C23.4359 5.91333 23.0993 5.33667 22.6659 4.85C22.2326 4.36333 21.7226 3.98667 21.1359 3.72C20.5493 3.45333 19.9026 3.32 19.1959 3.32C18.5026 3.32 17.8593 3.45333 17.2659 3.72C16.6793 3.98667 16.1693 4.36333 15.7359 4.85C15.3026 5.33667 14.9659 5.91333 14.7259 6.58C14.4926 7.24 14.3759 7.96667 14.3759 8.76C14.3759 9.55333 14.4926 10.2833 14.7259 10.95C14.9659 11.61 15.3026 12.1833 15.7359 12.67C16.1693 13.1567 16.6793 13.5333 17.2659 13.8C17.8593 14.0667 18.5026 14.2 19.1959 14.2ZM37.7164 17.32C36.5831 17.32 35.5264 17.1033 34.5464 16.67C33.5664 16.2367 32.7097 15.6333 31.9764 14.86C31.2431 14.08 30.6697 13.17 30.2564 12.13C29.8431 11.09 29.6364 9.96333 29.6364 8.75C29.6364 7.59 29.8297 6.49667 30.2164 5.47C30.6031 4.43667 31.1597 3.52667 31.8864 2.74C32.6131 1.94667 33.4897 1.32667 34.5164 0.879999C35.5431 0.426666 36.6931 0.199999 37.9664 0.199999C38.6864 0.199999 39.4097 0.279999 40.1364 0.439999C40.8697 0.599999 41.5731 0.836666 42.2464 1.15C42.9197 1.45667 43.5264 1.83333 44.0664 2.28L42.5464 4.79C41.9664 4.25 41.2631 3.83333 40.4364 3.54C39.6164 3.24 38.8064 3.09 38.0064 3.09C37.2197 3.09 36.5231 3.23 35.9164 3.51C35.3164 3.78333 34.8097 4.17 34.3964 4.67C33.9831 5.17 33.6697 5.75667 33.4564 6.43C33.2431 7.09667 33.1364 7.82333 33.1364 8.61C33.1364 9.47 33.2564 10.25 33.4964 10.95C33.7364 11.65 34.0697 12.2533 34.4964 12.76C34.9297 13.2667 35.4331 13.6567 36.0064 13.93C36.5864 14.2033 37.2097 14.34 37.8764 14.34C38.4097 14.34 38.9231 14.2533 39.4164 14.08C39.9164 13.9 40.3597 13.65 40.7464 13.33C41.1331 13.01 41.4397 12.6333 41.6664 12.2C41.8931 11.7667 42.0064 11.2933 42.0064 10.78V10.53H37.6764V8.02H45.3064V10.52C45.3064 11.5267 45.0964 12.4467 44.6764 13.28C44.2631 14.1067 43.6964 14.8233 42.9764 15.43C42.2564 16.03 41.4431 16.4967 40.5364 16.83C39.6297 17.1567 38.6897 17.32 37.7164 17.32ZM55.6903 17.32C54.537 17.32 53.457 17.1 52.4503 16.66C51.4436 16.22 50.5603 15.61 49.8003 14.83C49.0403 14.0433 48.4436 13.1333 48.0103 12.1C47.5836 11.06 47.3703 9.94667 47.3703 8.76C47.3703 7.57333 47.5836 6.46333 48.0103 5.43C48.4436 4.39 49.0403 3.48 49.8003 2.7C50.5603 1.91333 51.4436 1.3 52.4503 0.859999C53.457 0.419999 54.537 0.199999 55.6903 0.199999C56.8436 0.199999 57.9236 0.419999 58.9303 0.859999C59.937 1.3 60.8203 1.91333 61.5803 2.7C62.3403 3.48 62.9336 4.39 63.3603 5.43C63.7936 6.46333 64.0103 7.57333 64.0103 8.76C64.0103 9.94667 63.7936 11.06 63.3603 12.1C62.9336 13.1333 62.3403 14.0433 61.5803 14.83C60.8203 15.61 59.937 16.22 58.9303 16.66C57.9236 17.1 56.8436 17.32 55.6903 17.32ZM55.6803 14.2C56.387 14.2 57.0336 14.0667 57.6203 13.8C58.207 13.5333 58.717 13.1567 59.1503 12.67C59.5836 12.1833 59.9203 11.61 60.1603 10.95C60.4003 10.2833 60.5203 9.55333 60.5203 8.76C60.5203 7.96667 60.4003 7.24 60.1603 6.58C59.9203 5.91333 59.5836 5.33667 59.1503 4.85C58.717 4.36333 58.207 3.98667 57.6203 3.72C57.0336 3.45333 56.387 3.32 55.6803 3.32C54.987 3.32 54.3436 3.45333 53.7503 3.72C53.1636 3.98667 52.6536 4.36333 52.2203 4.85C51.787 5.33667 51.4503 5.91333 51.2103 6.58C50.977 7.24 50.8603 7.96667 50.8603 8.76C50.8603 9.55333 50.977 10.2833 51.2103 10.95C51.4503 11.61 51.787 12.1833 52.2203 12.67C52.6536 13.1567 53.1636 13.5333 53.7503 13.8C54.3436 14.0667 54.987 14.2 55.6803 14.2Z" fill="#F8F9FA"/>
</svg>
